<svg xmlns="http://www.w3.org/2000/svg" viewBox="0 0 940 560" width="940" height="560">
  <defs>
    <filter id="ds" x="-20%" y="-20%" width="140%" height="140%">
      <feDropShadow dx="0" dy="2" stdDeviation="4" flood-color="#000000" flood-opacity="0.45"/>
    </filter>
    <pattern id="dots" width="26" height="26" patternUnits="userSpaceOnUse">
      <circle cx="2" cy="2" r="1" fill="#16304d" opacity="0.55"/>
    </pattern>
    <marker id="arrow" viewBox="0 0 10 10" refX="9" refY="5" markerWidth="7" markerHeight="7" orient="auto-start-reverse">
      <path d="M 0 0 L 10 5 L 0 10 z" fill="#3a5573"/>
    </marker>
  </defs>

  <rect x="0.5" y="0.5" width="939" height="559" rx="14" fill="#0a1420" stroke="#1c3350" stroke-width="1"/>
  <rect x="0.5" y="0.5" width="939" height="559" rx="14" fill="url(#dots)"/>

  <text x="24" y="30" font-family="'IBM Plex Mono','SFMono-Regular',ui-monospace,monospace" font-size="10" letter-spacing="1.5" fill="#2f6b7a">ATLAS METHOD&#160;&#160;|&#160;&#160;REPO LAYOUT</text>

  <!-- panel card -->
  <g filter="url(#ds)"><rect x="48" y="56" width="844" height="446" rx="12" fill="#11203f" stroke="#2f4a6b" stroke-width="1"/></g>

  <!-- faint vertical guide separating path column from comment column (centered in gutter) -->
  <line x1="487" y1="100" x2="487" y2="486" stroke="#1c3350" stroke-width="1"/>

  <!-- tree connector strokes (explicit elbows; no glyph characters) -->
  <!-- depth1 guide: children of atlas-method/ are README.md(y115), LICENSE(y139), versions/(y163, last) -->
  <g fill="none" stroke="#5a7799" stroke-width="1.3">
    <!-- depth1 vertical from root row down to last child (versions/) -->
    <path d="M 111 97 L 111 159"/>
    <path d="M 111 111 L 123 111"/>
    <path d="M 111 135 L 123 135"/>
    <path d="M 111 159 L 123 159"/>

    <!-- depth2 guide: children of versions/ are v1.0.0/(y187), v1.1.0/(y211, last) -->
    <path d="M 141 169 L 141 207"/>
    <path d="M 141 183 L 153 183"/>
    <path d="M 141 207 L 153 207"/>

    <!-- depth3 guide: children of v1.1.0/ are QUICKSTART.md ... examples/(y475, last) -->
    <path d="M 171 217 L 171 471"/>
    <path d="M 171 231 L 183 231"/>
    <path d="M 171 255 L 183 255"/>
    <path d="M 171 279 L 183 279"/>
    <path d="M 171 303 L 183 303"/>
    <path d="M 171 327 L 183 327"/>
    <path d="M 171 351 L 183 351"/>
    <path d="M 171 375 L 183 375"/>
    <path d="M 171 399 L 183 399"/>
    <path d="M 171 423 L 183 423"/>
    <path d="M 171 447 L 183 447"/>
    <path d="M 171 471 L 183 471"/>
  </g>

  <!-- tree labels: explicit x by depth (99 / 129 / 159 / 189). dirs cyan, files light. -->
  <g font-family="'IBM Plex Mono','SFMono-Regular',ui-monospace,monospace" font-size="15" letter-spacing="0.5">
    <!-- depth 0 -->
    <text x="99" y="91" fill="#22D3EE">atlas-method/</text>

    <!-- depth 1 -->
    <text x="129" y="115" fill="#E6EDF7">README.md</text>
    <text x="129" y="139" fill="#E6EDF7">LICENSE</text>
    <text x="129" y="163" fill="#22D3EE">versions/</text>

    <!-- depth 2 -->
    <text x="159" y="187" fill="#22D3EE">v1.0.0/</text>
    <text x="159" y="211" fill="#22D3EE">v1.1.0/</text>

    <!-- depth 3 -->
    <text x="189" y="235" fill="#E6EDF7">QUICKSTART.md</text>
    <text x="189" y="259" fill="#E6EDF7">MIGRATION_v1.0.0_TO_v1.1.0.md</text>
    <text x="189" y="283" fill="#E6EDF7">CHANGELOG.md</text>
    <text x="189" y="307" fill="#22D3EE">bin/</text>
    <text x="189" y="331" fill="#22D3EE">commands/</text>
    <text x="189" y="355" fill="#22D3EE">docs/</text>
    <text x="189" y="379" fill="#22D3EE">hooks/</text>
    <text x="189" y="403" fill="#22D3EE">procedures/</text>
    <text x="189" y="427" fill="#22D3EE">skeleton/</text>
    <text x="189" y="451" fill="#22D3EE">templates/</text>
    <text x="189" y="475" fill="#22D3EE">examples/</text>
  </g>

  <!-- comment column: fixed x=511, marker glyph + text. dim gold, except "you are here" accent cyan. -->
  <g font-family="'IBM Plex Mono','SFMono-Regular',ui-monospace,monospace" font-size="15" letter-spacing="0.5">
    <text x="511" y="115" fill="#22D3EE">&#9656;&#160;you are here</text>
    <text x="511" y="139" fill="#C99A3A">&#9656;&#160;MIT</text>
    <text x="511" y="187" fill="#C99A3A">&#9656;&#160;first public release</text>
    <text x="511" y="211" fill="#C99A3A">&#9656;&#160;current</text>
    <text x="511" y="235" fill="#C99A3A">&#9656;&#160;20-minute walkthrough</text>
    <text x="511" y="307" fill="#C99A3A">&#9656;&#160;atlas-init bootstrap script</text>
    <text x="511" y="331" fill="#C99A3A">&#9656;&#160;/atlas, /newbot</text>
    <text x="511" y="355" fill="#C99A3A">&#9656;&#160;methodology specification</text>
    <text x="511" y="379" fill="#C99A3A">&#9656;&#160;4 hook scripts + README</text>
    <text x="511" y="403" fill="#C99A3A">&#9656;&#160;wrap.md and others</text>
    <text x="511" y="427" fill="#C99A3A">&#9656;&#160;four-document templates</text>
    <text x="511" y="451" fill="#C99A3A">&#9656;&#160;7 archetype templates for /newbot</text>
    <text x="511" y="475" fill="#C99A3A">&#9656;&#160;one worked domain</text>
  </g>
</svg>
